<svg id="Layer_1" data-name="Layer 1" xmlns="http://www.w3.org/2000/svg" viewBox="0 0 512 512"><defs><style>.cls-1{fill:#3183f5;}.cls-2{fill:#3183f5;}.cls-3{fill:#3183f5;}</style></defs><title>saturn_style_4</title><path class="cls-1" d="M473.52,256a224.73,224.73,0,0,1-1.86,28.84c-14.16,106.7-105.48,189-216,189a218.13,218.13,0,0,1-81.26-15.64A215.23,215.23,0,0,1,114.6,422c55.94-3.59,126.76-27.62,193-65.88,77-44.47,132.72-98.94,160-144.63v-.13c.38-.64.77-1.22,1.09-1.86A221.91,221.91,0,0,1,473.52,256Z"/><path class="cls-2" d="M456.09,170.45v.06a142,142,0,0,1-10.64,21.28L443.6,195c-10.25,16.47-24.1,33.52-40.76,50.24-29,29.48-66.52,58.19-108.11,82.22C230,364.81,160,388.33,107.23,390.25h-.9c-1.54.06-3.08.13-4.55.13a16.79,16.79,0,0,1-1.79.06,153.45,153.45,0,0,1-16.34-.83h-.13c-1.79-2.37-3.59-4.81-5.32-7.24s-3.59-5.13-5.25-7.75a224.34,224.34,0,0,1-15.51-28,209.73,209.73,0,0,1-11.86-32.55V314q-.87-3.08-1.54-6.15a40,40,0,0,1-1-4c-.51-2.11-1-4.29-1.35-6.47-.38-1.92-.7-3.84-1-5.77s-.64-3.91-.9-5.83a18.45,18.45,0,0,1-.26-1.86,3.65,3.65,0,0,1-.06-.83c-.26-1.6-.38-3.14-.58-4.81a1.09,1.09,0,0,1-.06-.45c-.7-7.18-1.09-14.48-1.09-21.85a202.9,202.9,0,0,1,1-20.76C49.17,124.63,142.28,38.12,255.64,38.12A216.73,216.73,0,0,1,347.73,58.5a198.87,198.87,0,0,1,26.53,14.8c1.86,1.22,3.72,2.44,5.51,3.72,1.67,1,3.33,2.24,5,3.46,1,.7,1.92,1.47,2.88,2.24s1.92,1.47,2.88,2.24l3.08,2.5c1.86,1.47,3.72,3.08,5.51,4.61.06.13.19.19.26.26,1.6,1.35,3.2,2.82,4.74,4.29,2.24,2.11,4.42,4.23,6.6,6.41,1.28,1.28,2.5,2.63,3.72,3.91,3.27,3.4,6.34,6.92,9.29,10.51,1.22,1.47,2.37,2.88,3.46,4.36,2.05,2.56,4,5.13,5.9,7.75.9,1.28,1.79,2.56,2.69,3.91,2.5,3.65,4.87,7.43,7.18,11.21a11.29,11.29,0,0,0,.7,1.15,178.18,178.18,0,0,1,8.78,16.6c1,2.05,1.92,4,2.82,6.09C455.52,169.17,455.77,169.81,456.09,170.45Z"/><path class="cls-1" d="M409.44,191.92A216.59,216.59,0,0,0,374.26,73.3c1.86,1.22,3.72,2.44,5.51,3.72,3.65,2.56,7.24,5.19,10.77,7.95l3.08,2.5c1.86,1.47,3.72,3.08,5.51,4.61.06.13.19.19.26.26,1.6,1.35,3.2,2.82,4.74,4.29,2.24,2.11,4.42,4.23,6.6,6.41,1.28,1.28,2.5,2.63,3.72,3.91,3.27,3.4,6.34,6.92,9.29,10.51,1.22,1.47,2.37,2.88,3.46,4.36,2.05,2.56,4,5.13,5.9,7.75.9,1.28,1.79,2.56,2.69,3.91,2.5,3.65,4.87,7.43,7.18,11.21a11.29,11.29,0,0,0,.7,1.15c3.14,5.38,6.09,10.89,8.78,16.6,1,2.05,1.92,4,2.82,6.09.26.64.51,1.28.83,1.92v.06a142,142,0,0,1-10.64,21.28L443.6,195c-10.25,16.47-24.1,33.52-40.76,50.24A215.1,215.1,0,0,0,409.44,191.92Z"/><path class="cls-3" d="M503.71,117.33c-13.59-23.58-42.42-36-80.55-38,5.06,4.81,9.93,9.81,14.55,15.06,4.36,4.81,8.39,9.74,12.11,14.74a67.54,67.54,0,0,1,6.66,2.11c11.79,4.29,20.31,10.7,25.06,18.91,6.47,11.21,6.34,26.59.19,44.67a18.06,18.06,0,0,1-.64,2l-.7,2-.38,1a172.58,172.58,0,0,1-12.5,25.12V205l-1.54,2.5-.58,1a5.38,5.38,0,0,1-.51.77c-1.73,2.82-3.65,5.7-5.58,8.52a.87.87,0,0,1-.19.26c-2.05,3-4.17,6-6.41,8.91,0,.06-.06.13-.13.19-3.33,4.49-6.92,9-10.7,13.46a3.55,3.55,0,0,1-.38.51c-4.87,5.83-10.13,11.66-15.64,17.43-9.16,9.48-19.16,19-30.05,28.52-4.74,4.17-9.61,8.27-14.61,12.24-1.09.9-2.24,1.79-3.33,2.69-3,2.37-6,4.74-9.1,7-7.69,5.83-15.7,11.6-23.9,17.17-3.91,2.63-7.82,5.25-11.86,7.82-3.14,2.05-6.28,4-9.48,6a17.25,17.25,0,0,1-1.79,1.15c-1.79,1.15-3.65,2.24-5.51,3.33-2.88,1.73-5.77,3.46-8.65,5.13-12.69,7.37-25.63,14.16-38.64,20.51-5.13,2.43-10.25,4.87-15.38,7.11-2.56,1.15-5.19,2.31-7.75,3.4-10.38,4.55-20.76,8.59-31,12.24-2.56.9-5.19,1.86-7.75,2.76-7.63,2.56-15.19,4.94-22.62,7-2.05.58-4.17,1.15-6.28,1.73-4.81,1.35-9.61,2.5-14.35,3.59l-2.56.58c-1.09.26-2.11.51-3.2.7-5.51,1.22-11,2.24-16.28,3.08-2.31.39-4.61.77-6.92,1.09-5.51.77-11,1.41-16.21,1.79-1.86.19-3.72.32-5.51.38s-3.27.19-4.87.26H107c-2.37.13-4.68.19-7,.19-2.18,0-4.36-.06-6.47-.13s-4.23-.13-6.28-.32c-1.6-.06-3.14-.19-4.68-.38s-3.08-.32-4.55-.45c-2.95-.38-5.83-.9-8.59-1.47-19-3.78-32.55-11.53-39-22.75-6.28-10.89-6.34-25.83-.64-43.32a233.88,233.88,0,0,1-9-26.47l-.9-3.27v-.19c-.26-1-.51-2.12-.77-3.14-.38-1.41-.77-2.88-1-4.36-19.48,35.89-24.1,68.89-9.87,93.56,14.87,25.83,48.06,38.32,91.7,38.32A277.15,277.15,0,0,0,137.35,439h.13c54.34-7.43,118.87-30.18,182.89-67.16,66.07-38.13,119.32-84.4,152.77-129C509,195.06,522.1,149.17,503.71,117.33Z"/></svg>